0
SECTION
2
HEADER
9
$HANDSEED
5
9D
9
$INSUNITS
70
6
9
$ACADVER
1
AC1021
0
ENDSEC
0
SECTION
2
CLASSES
0
ENDSEC
0
SECTION
2
TABLES
0
TABLE
2
LTYPE
5
9B
330
0
100
AcDbSymbolTable
70
5
0
LTYPE
5
6A
330
9B
100
AcDbSymbolTableRecord
100
AcDbLinetypeTableRecord
2
CONTINUOUS
3
______
70
0
72
65
73
0
40
0
0
LTYPE
5
6B
330
9B
100
AcDbSymbolTableRecord
100
AcDbLinetypeTableRecord
2
DASHED
3
_ _ _ 
70
0
72
65
73
2
40
10
49
5
74
0
49
-5
74
0
0
LTYPE
5
6C
330
9B
100
AcDbSymbolTableRecord
100
AcDbLinetypeTableRecord
2
DOTTED
3
. . . 
70
0
72
65
73
2
40
5
49
0
74
0
49
-5
74
0
0
LTYPE
5
6E
330
9B
100
AcDbSymbolTableRecord
100
AcDbLinetypeTableRecord
2
ByBlock
3

70
0
72
65
73
0
40
0
0
LTYPE
5
6F
330
9B
100
AcDbSymbolTableRecord
100
AcDbLinetypeTableRecord
2
ByLayer
3

70
0
72
65
73
0
40
0
0
ENDTAB
0
TABLE
2
LAYER
5
9C
330
0
100
AcDbSymbolTable
70
6
0
LAYER
5
6D
330
9C
100
AcDbSymbolTableRecord
100
AcDbLayerTableRecord
2
0
62
7
70
0
6
CONTINUOUS
390
1
0
LAYER
5
7E
330
9C
100
AcDbSymbolTableRecord
100
AcDbLayerTableRecord
2
WALLS
62
7
70
0
6
CONTINUOUS
390
1
0
LAYER
5
7F
330
9C
100
AcDbSymbolTableRecord
100
AcDbLayerTableRecord
2
ROOMS
62
4
70
0
6
CONTINUOUS
390
1
0
LAYER
5
80
330
9C
100
AcDbSymbolTableRecord
100
AcDbLayerTableRecord
2
DIMENSIONS
62
2
70
0
6
CONTINUOUS
390
1
0
LAYER
5
81
330
9C
100
AcDbSymbolTableRecord
100
AcDbLayerTableRecord
2
TEXT
62
3
70
0
6
CONTINUOUS
390
1
0
LAYER
5
82
330
9C
100
AcDbSymbolTableRecord
100
AcDbLayerTableRecord
2
GRID
62

70
0
6
DASHED
390
1
0
ENDTAB
0
TABLE
2
VPORT
5
70
330
0
100
AcDbSymbolTable
70
1
0
VPORT
5
76
330
70
100
AcDbSymbolTableRecord
100
AcDbViewportTableRecord
2
*ACTIVE
40
1000
70
0
0
ENDTAB
0
TABLE
2
STYLE
5
71
330
0
100
AcDbSymbolTable
70
1
0
STYLE
5
77
330
71
100
AcDbSymbolTableRecord
100
AcDbTextStyleTableRecord
2
standard
70
0
40
0
41
1
50
0
71
0
42
1
3
txt
4

0
ENDTAB
0
TABLE
2
VIEW
5
72
330
0
100
AcDbSymbolTable
70
0
0
ENDTAB
0
TABLE
2
UCS
5
73
330
0
100
AcDbSymbolTable
70
0
0
ENDTAB
0
TABLE
2
APPID
5
74
330
0
100
AcDbSymbolTable
70
1
0
APPID
5
78
330
74
100
AcDbSymbolTableRecord
100
AcDbRegAppTableRecord
2
ACAD
70
0
0
ENDTAB
0
TABLE
2
DIMSTYLE
5
75
330
0
100
AcDbSymbolTable
100
AcDbDimStyleTable
70
0
71
1
0
ENDTAB
0
TABLE
2
BLOCK_RECORD
5
98
330
0
100
AcDbSymbolTable
70
2
0
BLOCK_RECORD
5
99
330
98
100
AcDbSymbolTableRecord
100
AcDbBlockTableRecord
2
*Model_Space
70
0
280
0
281
1
0
BLOCK_RECORD
5
9A
330
98
100
AcDbSymbolTableRecord
100
AcDbBlockTableRecord
2
*Paper_Space
70
0
280
0
281
1
0
ENDTAB
0
ENDSEC
0
SECTION
2
BLOCKS
0
BLOCK
5
79
330
0
100
AcDbEntity
100
AcDbBlockBegin
2
*Model_Space
70
0
10
0
20
0
30
0
3
*Model_Space
1

0
ENDBLK
5
7A
330
0
100
AcDbEntity
100
AcDbBlockEnd
0
BLOCK
5
7B
330
0
100
AcDbEntity
100
AcDbBlockBegin
2
*Paper_Space
70
0
10
0
20
0
30
0
3
*Paper_Space
1

0
ENDBLK
5
7C
330
0
100
AcDbEntity
100
AcDbBlockEnd
0
ENDSEC
0
SECTION
2
ENTITIES
0
LWPOLYLINE
5
83
330
79
100
AcDbEntity
100
AcDbPolyline
8
WALLS
6
ByLayer
62
256
370
-1
90
4
70
1
10
0
20
0
10
0
20
9
10
13
20
9
10
13
20
0
0
LWPOLYLINE
5
84
330
79
100
AcDbEntity
100
AcDbPolyline
8
ROOMS
6
ByLayer
62
256
370
-1
90
4
70
1
10
0.3
20
0.3
10
0.3
20
2.175
10
6.35
20
2.175
10
6.35
20
0.3
0
LWPOLYLINE
5
85
330
79
100
AcDbEntity
100
AcDbPolyline
8
ROOMS
6
ByLayer
62
256
370
-1
90
4
70
1
10
6.6499999999999995
20
0.3
10
6.6499999999999995
20
2.175
10
12.7
20
2.175
10
12.7
20
0.3
0
LWPOLYLINE
5
86
330
79
100
AcDbEntity
100
AcDbPolyline
8
ROOMS
6
ByLayer
62
256
370
-1
90
4
70
1
10
0.3
20
2.4749999999999996
10
0.3
20
4.35
10
6.35
20
4.35
10
6.35
20
2.4749999999999996
0
LWPOLYLINE
5
87
330
79
100
AcDbEntity
100
AcDbPolyline
8
ROOMS
6
ByLayer
62
256
370
-1
90
4
70
1
10
6.6499999999999995
20
2.4749999999999996
10
6.6499999999999995
20
4.35
10
12.7
20
4.35
10
12.7
20
2.4749999999999996
0
LWPOLYLINE
5
88
330
79
100
AcDbEntity
100
AcDbPolyline
8
ROOMS
6
ByLayer
62
256
370
-1
90
4
70
1
10
0.3
20
4.6499999999999995
10
0.3
20
6.5249999999999995
10
6.35
20
6.5249999999999995
10
6.35
20
4.6499999999999995
0
LWPOLYLINE
5
89
330
79
100
AcDbEntity
100
AcDbPolyline
8
ROOMS
6
ByLayer
62
256
370
-1
90
4
70
1
10
6.6499999999999995
20
4.6499999999999995
10
6.6499999999999995
20
6.5249999999999995
10
12.7
20
6.5249999999999995
10
12.7
20
4.6499999999999995
0
LWPOLYLINE
5
8A
330
79
100
AcDbEntity
100
AcDbPolyline
8
ROOMS
6
ByLayer
62
256
370
-1
90
4
70
1
10
0.3
20
6.824999999999999
10
0.3
20
8.7
10
6.35
20
8.7
10
6.35
20
6.824999999999999
0
LWPOLYLINE
5
8B
330
79
100
AcDbEntity
100
AcDbPolyline
8
ROOMS
6
ByLayer
62
256
370
-1
90
4
70
1
10
6.6499999999999995
20
6.824999999999999
10
6.6499999999999995
20
8.7
10
12.7
20
8.7
10
12.7
20
6.824999999999999
0
TEXT
5
96
330
79
100
AcDbEntity
100
AcDbText
8
DIMENSIONS
10
6.5
20
-1.5
30
0
40
0.4
1
Width: 13.0 m
50
0
100
AcDbText
0
TEXT
5
97
330
79
100
AcDbEntity
100
AcDbText
8
DIMENSIONS
10
-3
20
4.5
30
0
40
0.4
1
Depth: 9.0 m
50
90
100
AcDbText
0
TEXT
5
8C
330
79
100
AcDbEntity
100
AcDbText
8
TEXT
10
6.5
20
11
30
0
40
0.8
1
GROUND FLOOR PLAN - L02
50
0
100
AcDbText
0
TEXT
5
8D
330
79
100
AcDbEntity
100
AcDbText
8
TEXT
10
6.5
20
10
30
0
40
0.5
1
Total Floor Area: 111 m2  |  Floors: 2
50
0
100
AcDbText
0
TEXT
5
8E
330
79
100
AcDbEntity
100
AcDbText
8
TEXT
10
3.3249999999999997
20
1.2375
30
0
40
0.3
1
Reception
50
0
100
AcDbText
0
TEXT
5
8F
330
79
100
AcDbEntity
100
AcDbText
8
TEXT
10
9.674999999999999
20
1.2375
30
0
40
0.3
1
Exhibition
50
0
100
AcDbText
0
TEXT
5
90
330
79
100
AcDbEntity
100
AcDbText
8
TEXT
10
3.3249999999999997
20
3.4124999999999996
30
0
40
0.3
1
Visitor Lounge
50
0
100
AcDbText
0
TEXT
5
91
330
79
100
AcDbEntity
100
AcDbText
8
TEXT
10
9.674999999999999
20
3.4124999999999996
30
0
40
0.3
1
Cafe
50
0
100
AcDbText
0
TEXT
5
92
330
79
100
AcDbEntity
100
AcDbText
8
TEXT
10
3.3249999999999997
20
5.5874999999999995
30
0
40
0.3
1
Shop
50
0
100
AcDbText
0
TEXT
5
93
330
79
100
AcDbEntity
100
AcDbText
8
TEXT
10
9.674999999999999
20
5.5874999999999995
30
0
40
0.3
1
Restrooms
50
0
100
AcDbText
0
TEXT
5
94
330
79
100
AcDbEntity
100
AcDbText
8
TEXT
10
3.3249999999999997
20
7.762499999999999
30
0
40
0.3
1
Office
50
0
100
AcDbText
0
TEXT
5
95
330
79
100
AcDbEntity
100
AcDbText
8
TEXT
10
9.674999999999999
20
7.762499999999999
30
0
40
0.3
1
Storage
50
0
100
AcDbText
0
ENDSEC
0
SECTION
2
OBJECTS
0
DICTIONARY
5
69
330
0
100
AcDbDictionary
281
1
3
ACAD_GROUP
350
7D
0
DICTIONARY
5
7D
330
69
100
AcDbDictionary
281
1
0
ENDSEC
0
EOF