0
SECTION
2
HEADER
9
$HANDSEED
5
BE
9
$INSUNITS
70
6
9
$ACADVER
1
AC1021
0
ENDSEC
0
SECTION
2
CLASSES
0
ENDSEC
0
SECTION
2
TABLES
0
TABLE
2
LTYPE
5
BC
330
0
100
AcDbSymbolTable
70
5
0
LTYPE
5
9E
330
BC
100
AcDbSymbolTableRecord
100
AcDbLinetypeTableRecord
2
CONTINUOUS
3
______
70
0
72
65
73
0
40
0
0
LTYPE
5
9F
330
BC
100
AcDbSymbolTableRecord
100
AcDbLinetypeTableRecord
2
DASHED
3
_ _ _ 
70
0
72
65
73
2
40
10
49
5
74
0
49
-5
74
0
0
LTYPE
5
A0
330
BC
100
AcDbSymbolTableRecord
100
AcDbLinetypeTableRecord
2
DOTTED
3
. . . 
70
0
72
65
73
2
40
5
49
0
74
0
49
-5
74
0
0
LTYPE
5
A2
330
BC
100
AcDbSymbolTableRecord
100
AcDbLinetypeTableRecord
2
ByBlock
3

70
0
72
65
73
0
40
0
0
LTYPE
5
A3
330
BC
100
AcDbSymbolTableRecord
100
AcDbLinetypeTableRecord
2
ByLayer
3

70
0
72
65
73
0
40
0
0
ENDTAB
0
TABLE
2
LAYER
5
BD
330
0
100
AcDbSymbolTable
70
3
0
LAYER
5
A1
330
BD
100
AcDbSymbolTableRecord
100
AcDbLayerTableRecord
2
0
62
7
70
0
6
CONTINUOUS
390
1
0
LAYER
5
B2
330
BD
100
AcDbSymbolTableRecord
100
AcDbLayerTableRecord
2
SECTION
62
7
70
0
6
CONTINUOUS
390
1
0
LAYER
5
B3
330
BD
100
AcDbSymbolTableRecord
100
AcDbLayerTableRecord
2
TEXT
62
3
70
0
6
CONTINUOUS
390
1
0
ENDTAB
0
TABLE
2
VPORT
5
A4
330
0
100
AcDbSymbolTable
70
1
0
VPORT
5
AA
330
A4
100
AcDbSymbolTableRecord
100
AcDbViewportTableRecord
2
*ACTIVE
40
1000
70
0
0
ENDTAB
0
TABLE
2
STYLE
5
A5
330
0
100
AcDbSymbolTable
70
1
0
STYLE
5
AB
330
A5
100
AcDbSymbolTableRecord
100
AcDbTextStyleTableRecord
2
standard
70
0
40
0
41
1
50
0
71
0
42
1
3
txt
4

0
ENDTAB
0
TABLE
2
VIEW
5
A6
330
0
100
AcDbSymbolTable
70
0
0
ENDTAB
0
TABLE
2
UCS
5
A7
330
0
100
AcDbSymbolTable
70
0
0
ENDTAB
0
TABLE
2
APPID
5
A8
330
0
100
AcDbSymbolTable
70
1
0
APPID
5
AC
330
A8
100
AcDbSymbolTableRecord
100
AcDbRegAppTableRecord
2
ACAD
70
0
0
ENDTAB
0
TABLE
2
DIMSTYLE
5
A9
330
0
100
AcDbSymbolTable
100
AcDbDimStyleTable
70
0
71
1
0
ENDTAB
0
TABLE
2
BLOCK_RECORD
5
B9
330
0
100
AcDbSymbolTable
70
2
0
BLOCK_RECORD
5
BA
330
B9
100
AcDbSymbolTableRecord
100
AcDbBlockTableRecord
2
*Model_Space
70
0
280
0
281
1
0
BLOCK_RECORD
5
BB
330
B9
100
AcDbSymbolTableRecord
100
AcDbBlockTableRecord
2
*Paper_Space
70
0
280
0
281
1
0
ENDTAB
0
ENDSEC
0
SECTION
2
BLOCKS
0
BLOCK
5
AD
330
0
100
AcDbEntity
100
AcDbBlockBegin
2
*Model_Space
70
0
10
0
20
0
30
0
3
*Model_Space
1

0
ENDBLK
5
AE
330
0
100
AcDbEntity
100
AcDbBlockEnd
0
BLOCK
5
AF
330
0
100
AcDbEntity
100
AcDbBlockBegin
2
*Paper_Space
70
0
10
0
20
0
30
0
3
*Paper_Space
1

0
ENDBLK
5
B0
330
0
100
AcDbEntity
100
AcDbBlockEnd
0
ENDSEC
0
SECTION
2
ENTITIES
0
LWPOLYLINE
5
B4
330
AD
100
AcDbEntity
100
AcDbPolyline
8
SECTION
6
ByLayer
62
256
370
-1
90
4
70
1
10
0
20
0
10
0
20
4
10
13
20
4
10
13
20
0
0
LINE
5
B5
330
AD
100
AcDbEntity
100
AcDbLine
8
SECTION
10
0
20
0
30
0
11
13
21
4
31
0
0
LWPOLYLINE
5
B6
330
AD
100
AcDbEntity
100
AcDbPolyline
8
SECTION
6
ByLayer
62
256
370
-1
90
4
70
1
10
0
20
4
10
0
20
8
10
13
20
8
10
13
20
4
0
LINE
5
B7
330
AD
100
AcDbEntity
100
AcDbLine
8
SECTION
10
0
20
4
30
0
11
13
21
8
31
0
0
TEXT
5
B8
330
AD
100
AcDbEntity
100
AcDbText
8
TEXT
10
6.5
20
9.5
30
0
40
0.8
1
SECTION A-A -  
50
0
100
AcDbText
0
ENDSEC
0
SECTION
2
OBJECTS
0
DICTIONARY
5
9D
330
0
100
AcDbDictionary
281
1
3
ACAD_GROUP
350
B1
0
DICTIONARY
5
B1
330
9D
100
AcDbDictionary
281
1
0
ENDSEC
0
EOF