0
SECTION
2
HEADER
9
$HANDSEED
5
35
9
$INSUNITS
70
6
9
$ACADVER
1
AC1021
0
ENDSEC
0
SECTION
2
CLASSES
0
ENDSEC
0
SECTION
2
TABLES
0
TABLE
2
LTYPE
5
33
330
0
100
AcDbSymbolTable
70
5
0
LTYPE
5
2
330
33
100
AcDbSymbolTableRecord
100
AcDbLinetypeTableRecord
2
CONTINUOUS
3
______
70
0
72
65
73
0
40
0
0
LTYPE
5
3
330
33
100
AcDbSymbolTableRecord
100
AcDbLinetypeTableRecord
2
DASHED
3
_ _ _ 
70
0
72
65
73
2
40
10
49
5
74
0
49
-5
74
0
0
LTYPE
5
4
330
33
100
AcDbSymbolTableRecord
100
AcDbLinetypeTableRecord
2
DOTTED
3
. . . 
70
0
72
65
73
2
40
5
49
0
74
0
49
-5
74
0
0
LTYPE
5
6
330
33
100
AcDbSymbolTableRecord
100
AcDbLinetypeTableRecord
2
ByBlock
3

70
0
72
65
73
0
40
0
0
LTYPE
5
7
330
33
100
AcDbSymbolTableRecord
100
AcDbLinetypeTableRecord
2
ByLayer
3

70
0
72
65
73
0
40
0
0
ENDTAB
0
TABLE
2
LAYER
5
34
330
0
100
AcDbSymbolTable
70
6
0
LAYER
5
5
330
34
100
AcDbSymbolTableRecord
100
AcDbLayerTableRecord
2
0
62
7
70
0
6
CONTINUOUS
390
1
0
LAYER
5
16
330
34
100
AcDbSymbolTableRecord
100
AcDbLayerTableRecord
2
WALLS
62
7
70
0
6
CONTINUOUS
390
1
0
LAYER
5
17
330
34
100
AcDbSymbolTableRecord
100
AcDbLayerTableRecord
2
ROOMS
62
4
70
0
6
CONTINUOUS
390
1
0
LAYER
5
18
330
34
100
AcDbSymbolTableRecord
100
AcDbLayerTableRecord
2
DIMENSIONS
62
2
70
0
6
CONTINUOUS
390
1
0
LAYER
5
19
330
34
100
AcDbSymbolTableRecord
100
AcDbLayerTableRecord
2
TEXT
62
3
70
0
6
CONTINUOUS
390
1
0
LAYER
5
1A
330
34
100
AcDbSymbolTableRecord
100
AcDbLayerTableRecord
2
GRID
62

70
0
6
DASHED
390
1
0
ENDTAB
0
TABLE
2
VPORT
5
8
330
0
100
AcDbSymbolTable
70
1
0
VPORT
5
E
330
8
100
AcDbSymbolTableRecord
100
AcDbViewportTableRecord
2
*ACTIVE
40
1000
70
0
0
ENDTAB
0
TABLE
2
STYLE
5
9
330
0
100
AcDbSymbolTable
70
1
0
STYLE
5
F
330
9
100
AcDbSymbolTableRecord
100
AcDbTextStyleTableRecord
2
standard
70
0
40
0
41
1
50
0
71
0
42
1
3
txt
4

0
ENDTAB
0
TABLE
2
VIEW
5
A
330
0
100
AcDbSymbolTable
70
0
0
ENDTAB
0
TABLE
2
UCS
5
B
330
0
100
AcDbSymbolTable
70
0
0
ENDTAB
0
TABLE
2
APPID
5
C
330
0
100
AcDbSymbolTable
70
1
0
APPID
5
10
330
C
100
AcDbSymbolTableRecord
100
AcDbRegAppTableRecord
2
ACAD
70
0
0
ENDTAB
0
TABLE
2
DIMSTYLE
5
D
330
0
100
AcDbSymbolTable
100
AcDbDimStyleTable
70
0
71
1
0
ENDTAB
0
TABLE
2
BLOCK_RECORD
5
30
330
0
100
AcDbSymbolTable
70
2
0
BLOCK_RECORD
5
31
330
30
100
AcDbSymbolTableRecord
100
AcDbBlockTableRecord
2
*Model_Space
70
0
280
0
281
1
0
BLOCK_RECORD
5
32
330
30
100
AcDbSymbolTableRecord
100
AcDbBlockTableRecord
2
*Paper_Space
70
0
280
0
281
1
0
ENDTAB
0
ENDSEC
0
SECTION
2
BLOCKS
0
BLOCK
5
11
330
0
100
AcDbEntity
100
AcDbBlockBegin
2
*Model_Space
70
0
10
0
20
0
30
0
3
*Model_Space
1

0
ENDBLK
5
12
330
0
100
AcDbEntity
100
AcDbBlockEnd
0
BLOCK
5
13
330
0
100
AcDbEntity
100
AcDbBlockBegin
2
*Paper_Space
70
0
10
0
20
0
30
0
3
*Paper_Space
1

0
ENDBLK
5
14
330
0
100
AcDbEntity
100
AcDbBlockEnd
0
ENDSEC
0
SECTION
2
ENTITIES
0
LWPOLYLINE
5
1B
330
11
100
AcDbEntity
100
AcDbPolyline
8
WALLS
6
ByLayer
62
256
370
-1
90
4
70
1
10
0
20
0
10
0
20
17
10
24
20
17
10
24
20
0
0
LWPOLYLINE
5
1C
330
11
100
AcDbEntity
100
AcDbPolyline
8
ROOMS
6
ByLayer
62
256
370
-1
90
4
70
1
10
0.3
20
0.3
10
0.3
20
4.175
10
11.850000000000001
20
4.175
10
11.850000000000001
20
0.3
0
LWPOLYLINE
5
1D
330
11
100
AcDbEntity
100
AcDbPolyline
8
ROOMS
6
ByLayer
62
256
370
-1
90
4
70
1
10
12.150000000000002
20
0.3
10
12.150000000000002
20
4.175
10
23.700000000000003
20
4.175
10
23.700000000000003
20
0.3
0
LWPOLYLINE
5
1E
330
11
100
AcDbEntity
100
AcDbPolyline
8
ROOMS
6
ByLayer
62
256
370
-1
90
4
70
1
10
0.3
20
4.475
10
0.3
20
8.35
10
11.850000000000001
20
8.35
10
11.850000000000001
20
4.475
0
LWPOLYLINE
5
1F
330
11
100
AcDbEntity
100
AcDbPolyline
8
ROOMS
6
ByLayer
62
256
370
-1
90
4
70
1
10
12.150000000000002
20
4.475
10
12.150000000000002
20
8.35
10
23.700000000000003
20
8.35
10
23.700000000000003
20
4.475
0
LWPOLYLINE
5
20
330
11
100
AcDbEntity
100
AcDbPolyline
8
ROOMS
6
ByLayer
62
256
370
-1
90
4
70
1
10
0.3
20
8.65
10
0.3
20
12.525
10
11.850000000000001
20
12.525
10
11.850000000000001
20
8.65
0
LWPOLYLINE
5
21
330
11
100
AcDbEntity
100
AcDbPolyline
8
ROOMS
6
ByLayer
62
256
370
-1
90
4
70
1
10
12.150000000000002
20
8.65
10
12.150000000000002
20
12.525
10
23.700000000000003
20
12.525
10
23.700000000000003
20
8.65
0
LWPOLYLINE
5
22
330
11
100
AcDbEntity
100
AcDbPolyline
8
ROOMS
6
ByLayer
62
256
370
-1
90
4
70
1
10
0.3
20
12.825
10
0.3
20
16.7
10
11.850000000000001
20
16.7
10
11.850000000000001
20
12.825
0
LWPOLYLINE
5
23
330
11
100
AcDbEntity
100
AcDbPolyline
8
ROOMS
6
ByLayer
62
256
370
-1
90
4
70
1
10
12.150000000000002
20
12.825
10
12.150000000000002
20
16.7
10
23.700000000000003
20
16.7
10
23.700000000000003
20
12.825
0
TEXT
5
2E
330
11
100
AcDbEntity
100
AcDbText
8
DIMENSIONS
10
12
20
-1.5
30
0
40
0.4
1
Width: 24.0 m
50
0
100
AcDbText
0
TEXT
5
2F
330
11
100
AcDbEntity
100
AcDbText
8
DIMENSIONS
10
-3
20
8.5
30
0
40
0.4
1
Depth: 17.0 m
50
90
100
AcDbText
0
TEXT
5
24
330
11
100
AcDbEntity
100
AcDbText
8
TEXT
10
12
20
19
30
0
40
0.8
1
GROUND FLOOR PLAN - HERITAGE BUILDING
50
0
100
AcDbText
0
TEXT
5
25
330
11
100
AcDbEntity
100
AcDbText
8
TEXT
10
12
20
18
30
0
40
0.5
1
Total Floor Area: 400 m2  |  Floors: 2
50
0
100
AcDbText
0
TEXT
5
26
330
11
100
AcDbEntity
100
AcDbText
8
TEXT
10
6.075
20
2.2375
30
0
40
0.3
1
Main Hall
50
0
100
AcDbText
0
TEXT
5
27
330
11
100
AcDbEntity
100
AcDbText
8
TEXT
10
17.925000000000004
20
2.2375
30
0
40
0.3
1
Gallery A
50
0
100
AcDbText
0
TEXT
5
28
330
11
100
AcDbEntity
100
AcDbText
8
TEXT
10
6.075
20
6.4125
30
0
40
0.3
1
Gallery B
50
0
100
AcDbText
0
TEXT
5
29
330
11
100
AcDbEntity
100
AcDbText
8
TEXT
10
17.925000000000004
20
6.4125
30
0
40
0.3
1
Reception
50
0
100
AcDbText
0
TEXT
5
2A
330
11
100
AcDbEntity
100
AcDbText
8
TEXT
10
6.075
20
10.5875
30
0
40
0.3
1
Storage
50
0
100
AcDbText
0
TEXT
5
2B
330
11
100
AcDbEntity
100
AcDbText
8
TEXT
10
17.925000000000004
20
10.5875
30
0
40
0.3
1
Restrooms
50
0
100
AcDbText
0
TEXT
5
2C
330
11
100
AcDbEntity
100
AcDbText
8
TEXT
10
6.075
20
14.7625
30
0
40
0.3
1
Staff Room
50
0
100
AcDbText
0
TEXT
5
2D
330
11
100
AcDbEntity
100
AcDbText
8
TEXT
10
17.925000000000004
20
14.7625
30
0
40
0.3
1
Utility
50
0
100
AcDbText
0
ENDSEC
0
SECTION
2
OBJECTS
0
DICTIONARY
5
1
330
0
100
AcDbDictionary
281
1
3
ACAD_GROUP
350
15
0
DICTIONARY
5
15
330
1
100
AcDbDictionary
281
1
0
ENDSEC
0
EOF